<svg width="90" height="38" viewBox="0 0 90 38" fill="none" xmlns="http://www.w3.org/2000/svg">
<path d="M29 11.1953C29.7992 11.2018 31.9266 11.0131 32.75 11.0197C33.575 11.0365 34.4 11.0532 35.25 11.0705C36.0905 11.0795 36.9309 11.0885 37.7969 11.0978C39.8647 11.1213 41.9324 11.1572 44 11.1955C42.8437 12.0985 42.8437 12.0985 41.6641 13.0197C34.4518 18.9101 31.5142 25.1101 30 34.1955C24.06 34.1955 18.12 34.1955 12 34.1955C13 25.6954 14.9836 22.5507 20.5 16C24 13.8243 25.1719 12.3906 29 11.1953Z" fill="#BE2F2F"/>
<path d="M48 12.5C55.0355 12.1297 61.4838 13.9071 67.625 17.5626C72.0529 22.107 75 27.6316 75 34.0001C70.38 34.0001 65.76 34.0001 61 34.0001C60.2781 31.9582 59.5562 29.9163 58.8125 27.8126C56.8358 22.6259 56 20 52 16C51.67 15.01 49 13.5 48 12.5Z" fill="#8E1E21"/>
</svg>
